PathFileType	4	(X/Y/Z)	output.trc
DataRate	CameraRate	NumFrames	NumMarkers	Units	OrigDataRate	OrigDataStartFrame	OrigNumFrames
120	120	16	17	m	120	3358	4477
Frame#	Time	Elbow_Midpoint			GH			Wrist_Midpoint			US			RS			C7			EM			EL			T8			SC			AC			AI			TS			AA			IJx			PX00			PC
		X1	Y1	Z1	X2	Y2	Z2	X3	Y3	Z3	X4	Y4	Z4	X5	Y5	Z5	X6	Y6	Z6	X7	Y7	Z7	X8	Y8	Z8	X9	Y9	Z9	X10	Y10	Z10	X11	Y11	Z11	X12	Y12	Z12	X13	Y13	Z13	X14	Y14	Z14	X15	Y15	Z15	X16	Y16	Z16	X17	Y17	Z17
3357	27.975000	0.367779	0.937851	-0.562426	0.308634	1.192177	-0.525490	0.436761	0.735818	-0.647560	0.453892	0.736870	-0.632621	0.419630	0.734767	-0.662499	0.149923	1.314249	-0.496614	0.358630	0.928514	-0.523112	0.399774	0.928844	-0.566713	0.147451	1.092042	-0.404934	0.157493	1.213440	-0.553195	0.276488	1.241678	-0.528123	0.234250	1.119020	-0.393557	0.218853	1.270265	-0.445585	0.325571	1.225025	-0.528248	0.144170	1.215659	-0.556037	0.133478	1.025227	-0.587686	0.263527	1.203066	-0.541093
3358	27.983333	0.367249	0.936999	-0.559327	0.308844	1.191918	-0.525403	0.435499	0.733778	-0.642191	0.452620	0.734923	-0.627248	0.418378	0.732633	-0.657135	0.150026	1.314197	-0.496841	0.357759	0.928096	-0.520067	0.399077	0.927804	-0.563502	0.147426	1.092026	-0.405077	0.157595	1.213364	-0.553379	0.276715	1.241434	-0.528279	0.234093	1.118777	-0.393834	0.218734	1.269987	-0.445972	0.325817	1.224833	-0.528211	0.144274	1.215586	-0.556229	0.133537	1.025145	-0.587812	0.263845	1.202804	-0.541286
3359	27.991667	0.366734	0.936202	-0.556269	0.309073	1.191662	-0.525314	0.434205	0.731817	-0.636878	0.451316	0.733051	-0.621931	0.417093	0.730584	-0.651826	0.150160	1.314140	-0.497056	0.356867	0.927710	-0.517042	0.398347	0.926794	-0.560315	0.147363	1.092004	-0.405213	0.157711	1.213282	-0.553552	0.276964	1.241201	-0.528472	0.233867	1.118471	-0.394245	0.218601	1.269681	-0.446410	0.326079	1.224644	-0.528194	0.144393	1.215511	-0.556413	0.133567	1.025065	-0.587933	0.264184	1.202563	-0.541544
3360	28.000000	0.366245	0.935473	-0.553274	0.309322	1.191411	-0.525225	0.432878	0.729934	-0.631616	0.449978	0.731250	-0.616663	0.415778	0.728619	-0.646570	0.150328	1.314078	-0.497265	0.355967	0.927361	-0.514031	0.397594	0.925819	-0.557143	0.147279	1.091979	-0.405341	0.157842	1.213192	-0.553717	0.277227	1.240983	-0.528689	0.233567	1.118137	-0.394750	0.218461	1.269374	-0.446884	0.326350	1.224453	-0.528191	0.144528	1.215431	-0.556589	0.133574	1.024982	-0.588047	0.264531	1.202346	-0.541847
3361	28.008333	0.365780	0.934809	-0.550346	0.309584	1.191164	-0.525136	0.431525	0.728130	-0.626404	0.448609	0.729521	-0.611439	0.414441	0.726739	-0.641369	0.150524	1.314009	-0.497472	0.355076	0.927053	-0.511028	0.396841	0.924886	-0.553981	0.147195	1.091951	-0.405460	0.157986	1.213094	-0.553878	0.277497	1.240781	-0.528920	0.233186	1.117811	-0.395310	0.218323	1.269093	-0.447382	0.326618	1.224256	-0.528193	0.144677	1.215344	-0.556761	0.133566	1.024892	-0.588150	0.264871	1.202155	-0.542176
3362	28.016667	0.365326	0.934198	-0.547473	0.309844	1.190919	-0.525052	0.430159	0.726404	-0.621244	0.447220	0.727863	-0.606259	0.413098	0.724945	-0.636229	0.150741	1.313936	-0.497683	0.354216	0.926788	-0.508034	0.396117	0.924005	-0.550818	0.147123	1.091925	-0.405569	0.158141	1.212987	-0.554036	0.277769	1.240598	-0.529165	0.232715	1.117518	-0.395904	0.218190	1.268858	-0.447904	0.326878	1.224049	-0.528202	0.144836	1.215249	-0.556930	0.133554	1.024794	-0.588236	0.265193	1.201990	-0.542524
3363	28.025000	0.364875	0.933621	-0.544630	0.310087	1.190668	-0.524979	0.428794	0.724758	-0.616142	0.445824	0.726278	-0.601129	0.411764	0.723238	-0.631156	0.150965	1.313864	-0.497903	0.353408	0.926568	-0.505045	0.395451	0.923182	-0.547646	0.147073	1.091908	-0.405666	0.158298	1.212876	-0.554194	0.278039	1.240431	-0.529426	0.232151	1.117279	-0.396517	0.218065	1.268683	-0.448454	0.327125	1.223827	-0.528220	0.144997	1.215150	-0.557097	0.133545	1.024688	-0.588304	0.265491	1.201850	-0.542886
3364	28.033333	0.364425	0.933064	-0.541788	0.310305	1.190410	-0.524928	0.427447	0.723192	-0.611109	0.444439	0.724764	-0.596058	0.410455	0.721619	-0.626160	0.151182	1.313800	-0.498134	0.352670	0.926392	-0.502058	0.394866	0.922421	-0.544457	0.147043	1.091910	-0.405749	0.158452	1.212767	-0.554354	0.278306	1.240276	-0.529703	0.231507	1.117108	-0.397127	0.217953	1.268572	-0.449029	0.327356	1.223588	-0.528250	0.145154	1.215051	-0.557265	0.133546	1.024579	-0.588348	0.265764	1.201726	-0.543257
3365	28.041667	0.363979	0.932514	-0.538916	0.310497	1.190139	-0.524901	0.426131	0.721706	-0.606153	0.443080	0.723324	-0.591059	0.409181	0.720088	-0.621247	0.151384	1.313748	-0.498378	0.352014	0.926259	-0.499076	0.394375	0.921723	-0.541253	0.147033	1.091935	-0.405818	0.158597	1.212664	-0.554514	0.278566	1.240124	-0.529992	0.230820	1.117013	-0.397701	0.217864	1.268525	-0.449616	0.327571	1.223328	-0.528294	0.145302	1.214956	-0.557432	0.133556	1.024469	-0.588369	0.266009	1.201606	-0.543624
3366	28.050000	0.363540	0.931965	-0.535997	0.310660	1.189857	-0.524888	0.424859	0.720301	-0.601279	0.441763	0.721958	-0.586139	0.407954	0.718645	-0.616420	0.151570	1.313707	-0.498630	0.351442	0.926168	-0.496114	0.393980	0.921092	-0.538050	0.147040	1.091979	-0.405876	0.158732	1.212569	-0.554675	0.278819	1.239966	-0.530286	0.230138	1.116998	-0.398203	0.217810	1.268533	-0.450202	0.327773	1.223046	-0.528354	0.145440	1.214868	-0.557599	0.133574	1.024361	-0.588371	0.266229	1.201478	-0.543971
3367	28.058333	0.363116	0.931422	-0.533025	0.310795	1.189565	-0.524872	0.423643	0.718978	-0.596490	0.440502	0.720669	-0.581303	0.406783	0.717288	-0.611677	0.151742	1.313676	-0.498882	0.350950	0.926113	-0.493189	0.393674	0.920528	-0.534870	0.147066	1.092036	-0.405925	0.158858	1.212482	-0.554832	0.279064	1.239794	-0.530582	0.229509	1.117069	-0.398599	0.217799	1.268591	-0.450777	0.327965	1.222747	-0.528432	0.145568	1.214786	-0.557761	0.133601	1.024258	-0.588361	0.266429	1.201328	-0.544286
3368	28.066667	0.362718	0.930895	-0.530009	0.310911	1.189270	-0.524839	0.422491	0.717741	-0.591783	0.439308	0.719462	-0.576552	0.405674	0.716020	-0.607014	0.151903	1.313649	-0.499127	0.350519	0.926092	-0.490314	0.393436	0.920027	-0.531730	0.147112	1.092096	-0.405969	0.158979	1.212401	-0.554984	0.279301	1.239603	-0.530874	0.228975	1.117238	-0.398847	0.217835	1.268698	-0.451332	0.328150	1.222434	-0.528525	0.145690	1.214708	-0.557917	0.133638	1.024158	-0.588344	0.266614	1.201145	-0.544554
3369	28.075000	0.362356	0.930402	-0.526972	0.311025	1.188982	-0.524785	0.421408	0.716592	-0.587150	0.438185	0.718342	-0.571879	0.404630	0.714841	-0.602421	0.152054	1.313622	-0.499357	0.350128	0.926106	-0.487491	0.393236	0.919581	-0.528638	0.147177	1.092152	-0.406008	0.159095	1.212324	-0.555126	0.279525	1.239391	-0.531149	0.228566	1.117535	-0.398895	0.217921	1.268865	-0.451853	0.328327	1.222114	-0.528622	0.145807	1.214633	-0.558062	0.133686	1.024061	-0.588325	0.266783	1.200923	-0.544749
3370	28.083333	0.362029	0.929963	-0.523950	0.311163	1.188714	-0.524709	0.420391	0.715533	-0.582576	0.437132	0.717314	-0.567268	0.403651	0.713751	-0.597884	0.152196	1.313593	-0.499568	0.349752	0.926159	-0.484714	0.393043	0.919186	-0.525594	0.147257	1.092198	-0.406040	0.159209	1.212247	-0.555255	0.279728	1.239163	-0.531388	0.228301	1.117990	-0.398688	0.218059	1.269110	-0.452322	0.328490	1.221794	-0.528707	0.145922	1.214558	-0.558193	0.133747	1.023965	-0.588303	0.266928	1.200662	-0.544842
3371	28.091667	0.361732	0.929594	-0.520981	0.311336	1.188476	-0.524612	0.419435	0.714565	-0.578046	0.436139	0.716383	-0.562702	0.402731	0.712748	-0.593389	0.152331	1.313559	-0.499757	0.349375	0.926257	-0.481978	0.392837	0.918840	-0.522597	0.147346	1.092236	-0.406063	0.159322	1.212170	-0.555369	0.279904	1.238925	-0.531574	0.228186	1.118616	-0.398203	0.218242	1.269440	-0.452719	0.328633	1.221486	-0.528764	0.146036	1.214481	-0.558308	0.133822	1.023868	-0.588274	0.267043	1.200370	-0.544812
3372	28.100000	0.361460	0.929307	-0.518092	0.311540	1.188273	-0.524500	0.418531	0.713690	-0.573552	0.435197	0.715548	-0.558172	0.401865	0.711832	-0.588932	0.152457	1.313521	-0.499929	0.348989	0.926403	-0.479280	0.392613	0.918545	-0.519641	0.147435	1.092269	-0.406070	0.159436	1.212090	-0.555465	0.280049	1.238686	-0.531699	0.228218	1.119389	-0.397465	0.218461	1.269840	-0.453035	0.328755	1.221201	-0.528785	0.146150	1.214401	-0.558406	0.133909	1.023768	-0.588231	0.267129	1.200057	-0.544660
